<svg width="50" height="41" viewBox="0 0 50 41" fill="none" xmlns="http://www.w3.org/2000/svg">
<path d="M46.1111 41L28.6111 26.65C27.2222 27.5611 25.625 28.2824 23.8194 28.8139C22.0139 29.3454 20.0926 29.6111 18.0556 29.6111C13.0093 29.6111 8.73889 28.1784 5.24444 25.3129C1.74815 22.446 0 18.9435 0 14.8056C0 10.6676 1.74815 7.16513 5.24444 4.29817C8.73889 1.43272 13.0093 0 18.0556 0C23.1019 0 27.3731 1.43272 30.8694 4.29817C34.3639 7.16513 36.1111 10.6676 36.1111 14.8056C36.1111 16.4759 35.787 18.0514 35.1389 19.5319C34.4907 21.0125 33.6111 22.3222 32.5 23.4611L50 37.8111L46.1111 41ZM18.0556 25.0556C21.5278 25.0556 24.4796 24.0594 26.9111 22.0671C29.3407 20.0733 30.5556 17.6528 30.5556 14.8056C30.5556 11.9583 29.3407 9.53781 26.9111 7.544C24.4796 5.5517 21.5278 4.55556 18.0556 4.55556C14.5833 4.55556 11.6315 5.5517 9.2 7.544C6.77037 9.53781 5.55556 11.9583 5.55556 14.8056C5.55556 17.6528 6.77037 20.0733 9.2 22.0671C11.6315 24.0594 14.5833 25.0556 18.0556 25.0556Z" fill="black"/>
</svg>
